<svg xmlns="http://www.w3.org/2000/svg" viewBox="0 0 96 96" fill="none">
  <circle cx="48" cy="48" r="42" fill="#F7FEE7"/>
  <g stroke="#65A30D" stroke-width="3" stroke-linecap="round" stroke-linejoin="round">
    <path d="M25 34c0-3 2-5 5-5h18v42H30c-3 0-5 2-5 5V34Z"/>
    <path d="M71 34c0-3-2-5-5-5H48v42h18c3 0 5 2 5 5V34Z"/>
    <path d="M48 61V48"/>
    <path d="M48 48c-6 0-10-4-11-10 6 0 10 4 11 10Z"/>
    <path d="M48 48c6 0 10-4 11-10-6 0-10 4-11 10Z"/>
    <path d="M34 43h8"/>
    <path d="M55 43h7"/>
  </g>
</svg>
